<svg width="322" height="67" viewBox="0 0 322 67" fill="none" xmlns="http://www.w3.org/2000/svg">
<path d="M32.1 54.93C31.54 54.93 31.1667 54.8833 30.98 54.79C30.7933 54.65 30.56 54.3233 30.28 53.81L10.05 16.92V53.25C10.05 53.9967 9.98 54.4633 9.84 54.65C9.7 54.8367 9.25667 54.93 8.51 54.93H2.14C1.44 54.93 0.996667 54.8367 0.81 54.65C0.623334 54.4633 0.53 53.9967 0.53 53.25V2.78C0.53 1.98666 0.6 1.47333 0.74 1.24C0.926667 1.00666 1.44 0.889996 2.28 0.889996H9.21C9.77 0.889996 10.1433 0.959996 10.33 1.1C10.5167 1.24 10.7733 1.61333 11.1 2.22L31.05 38.83V2.57C31.05 1.87 31.12 1.42666 31.26 1.24C31.4467 1.00666 31.89 0.889996 32.59 0.889996H38.89C39.73 0.889996 40.22 1.00666 40.36 1.24C40.5 1.47333 40.57 1.91667 40.57 2.57V52.97C40.57 53.8567 40.4767 54.4167 40.29 54.65C40.1033 54.8367 39.59 54.93 38.75 54.93H32.1ZM72.0394 55.07C71.6194 55.07 71.3394 55.0233 71.1994 54.93C71.106 54.8367 71.0594 54.5567 71.0594 54.09V51.08C70.266 52.34 68.9594 53.4133 67.1394 54.3C65.366 55.1867 63.5927 55.63 61.8194 55.63C59.906 55.63 58.0627 55.3733 56.2894 54.86C54.516 54.3 53.046 53.46 51.8794 52.34C50.7594 51.1733 49.8727 49.7967 49.2194 48.21C48.566 46.5767 48.2394 44.7333 48.2394 42.68C48.2394 40.2533 48.8227 38.06 49.9894 36.1C51.156 34.14 52.696 32.6233 54.6094 31.55C56.5694 30.43 58.8794 29.6367 61.5394 29.17C64.1994 28.6567 67.1394 28.4933 70.3594 28.68C70.0794 24.9933 68.4927 22.9633 65.5994 22.59C64.666 22.4967 63.7094 22.52 62.7294 22.66C61.796 22.8 60.8627 23.0333 59.9294 23.36C59.0427 23.64 58.1794 23.99 57.3394 24.41C56.4994 24.7833 55.7527 25.18 55.0994 25.6C54.1194 26.2533 53.4194 26.58 52.9994 26.58C52.5794 26.58 52.3694 26.1133 52.3694 25.18V19.37C52.3694 18.7633 52.416 18.3433 52.5094 18.11C52.6494 17.83 52.9994 17.55 53.5594 17.27C54.9594 16.57 56.5927 15.9167 58.4594 15.31C60.3727 14.7033 62.6127 14.4 65.1794 14.4C69.9394 14.4 73.486 15.6133 75.8194 18.04C78.1994 20.4667 79.3894 24.2233 79.3894 29.31V45.27C79.3894 45.8767 79.3894 46.5533 79.3894 47.3C79.3894 48 79.3894 48.7233 79.3894 49.47C79.436 50.2167 79.4594 50.94 79.4594 51.64C79.506 52.2933 79.5527 52.8767 79.5994 53.39C79.6927 54.3233 79.646 54.8367 79.4594 54.93C79.2727 55.0233 78.946 55.07 78.4794 55.07H72.0394ZM71.0594 35.75C68.3994 35.7967 66.206 36.0067 64.4794 36.38C62.7527 36.7067 61.3527 37.1733 60.2794 37.78C59.2527 38.3867 58.5527 39.11 58.1794 39.95C57.806 40.79 57.6194 41.7233 57.6194 42.75C57.6194 44.2433 58.0627 45.41 58.9494 46.25C59.836 47.0433 61.0727 47.44 62.6594 47.44C65.1794 47.44 67.186 46.53 68.6794 44.71C70.2194 42.8433 71.0127 39.8567 71.0594 35.75ZM105.564 54.09C105.471 54.4633 105.354 54.6967 105.214 54.79C105.074 54.8833 104.747 54.93 104.234 54.93H97.8639C97.4906 54.93 97.2106 54.8833 97.0239 54.79C96.8372 54.6967 96.6972 54.4633 96.6039 54.09L84.2839 16.99C84.0506 16.29 84.0039 15.8467 84.1439 15.66C84.3306 15.4733 84.8206 15.38 85.6139 15.38H92.1239C92.5906 15.38 92.8939 15.4267 93.0339 15.52C93.2206 15.6133 93.3606 15.8467 93.4539 16.22L101.154 41.42L108.854 16.22C108.947 15.8467 109.064 15.6133 109.204 15.52C109.344 15.4267 109.671 15.38 110.184 15.38H116.624C117.417 15.38 117.884 15.4733 118.024 15.66C118.211 15.8467 118.187 16.29 117.954 16.99L105.564 54.09ZM123.16 58.85C122.74 58.85 122.437 58.7567 122.25 58.57C122.11 58.3833 122.04 58.01 122.04 57.45V20.98C122.04 20.42 122.11 20.0467 122.25 19.86C122.39 19.6733 122.693 19.58 123.16 19.58H130.09C130.557 19.58 130.86 19.6733 131 19.86C131.187 20.0467 131.28 20.42 131.28 20.98V57.45C131.28 58.01 131.187 58.3833 131 58.57C130.86 58.7567 130.557 58.85 130.09 58.85H123.16ZM126.73 13.63C125.19 13.63 123.907 13.0933 122.88 12.02C121.853 10.9467 121.34 9.64 121.34 8.1C121.34 6.56 121.83 5.25333 122.81 4.18C123.837 3.06 125.143 2.5 126.73 2.5C128.317 2.5 129.623 3.06 130.65 4.18C131.677 5.25333 132.19 6.56 132.19 8.1C132.19 9.64 131.677 10.9467 130.65 12.02C129.623 13.0933 128.317 13.63 126.73 13.63ZM153.623 56.4C152.41 59.8533 150.893 62.3267 149.073 63.82C147.253 65.36 145.083 66.13 142.563 66.13C142.05 66.13 141.303 66.0833 140.323 65.99C139.343 65.9433 138.387 65.7333 137.453 65.36C136.94 65.1267 136.59 64.9167 136.403 64.73C136.263 64.59 136.217 64.2633 136.263 63.75L136.753 58.01C136.8 57.59 136.94 57.3333 137.173 57.24C137.407 57.1933 137.71 57.24 138.083 57.38C138.737 57.6133 139.39 57.7767 140.043 57.87C140.743 58.01 141.443 58.0567 142.143 58.01C142.517 57.9633 142.867 57.87 143.193 57.73C143.52 57.59 143.8 57.31 144.033 56.89C144.547 55.8167 145.013 54.7667 145.433 53.74C145.9 52.7133 146.343 51.5233 146.763 50.17L135.143 17.13C134.91 16.43 134.887 15.9867 135.073 15.8C135.26 15.6133 135.633 15.52 136.193 15.52H142.843C143.263 15.52 143.543 15.59 143.683 15.73C143.87 15.8233 144.033 16.1267 144.173 16.64L151.103 38.9L158.033 16.64C158.173 16.1267 158.313 15.8233 158.453 15.73C158.64 15.59 158.943 15.52 159.363 15.52H166.153C166.807 15.52 167.18 15.6367 167.273 15.87C167.413 16.1033 167.367 16.5467 167.133 17.2L153.623 56.4ZM204.434 54.93C203.874 54.93 203.501 54.8833 203.314 54.79C203.127 54.65 202.894 54.3233 202.614 53.81L182.384 16.92V53.25C182.384 53.9967 182.314 54.4633 182.174 54.65C182.034 54.8367 181.591 54.93 180.844 54.93H174.474C173.774 54.93 173.331 54.8367 173.144 54.65C172.957 54.4633 172.864 53.9967 172.864 53.25V2.78C172.864 1.98666 172.934 1.47333 173.074 1.24C173.261 1.00666 173.774 0.889996 174.614 0.889996H181.544C182.104 0.889996 182.477 0.959996 182.664 1.1C182.851 1.24 183.107 1.61333 183.434 2.22L203.384 38.83V2.57C203.384 1.87 203.454 1.42666 203.594 1.24C203.781 1.00666 204.224 0.889996 204.924 0.889996H211.224C212.064 0.889996 212.554 1.00666 212.694 1.24C212.834 1.47333 212.904 1.91667 212.904 2.57V52.97C212.904 53.8567 212.811 54.4167 212.624 54.65C212.437 54.8367 211.924 54.93 211.084 54.93H204.434ZM253.823 49.47C252.097 51.6633 250.02 53.32 247.593 54.44C245.213 55.5133 242.553 56.05 239.613 56.05C236.533 56.05 233.827 55.49 231.493 54.37C229.207 53.25 227.27 51.7567 225.683 49.89C224.143 47.9767 222.977 45.76 222.183 43.24C221.39 40.72 220.993 38.06 220.993 35.26C220.993 32.46 221.367 29.8 222.113 27.28C222.907 24.76 224.073 22.5667 225.613 20.7C227.2 18.7867 229.16 17.2933 231.493 16.22C233.827 15.1 236.533 14.54 239.613 14.54C242.693 14.54 245.4 15.1 247.733 16.22C250.067 17.34 252.003 18.8567 253.543 20.77C255.13 22.6367 256.32 24.83 257.113 27.35C257.907 29.8233 258.303 32.46 258.303 35.26C258.303 38.0133 257.907 40.6267 257.113 43.1C256.367 45.5267 255.27 47.65 253.823 49.47ZM239.613 22.73C238.073 22.73 236.72 23.1033 235.553 23.85C234.387 24.55 233.407 25.4833 232.613 26.65C231.867 27.8167 231.283 29.1467 230.863 30.64C230.49 32.1333 230.303 33.6733 230.303 35.26C230.303 36.8467 230.49 38.3867 230.863 39.88C231.283 41.3733 231.867 42.7267 232.613 43.94C233.407 45.1067 234.387 46.0633 235.553 46.81C236.72 47.51 238.073 47.86 239.613 47.86C241.2 47.86 242.577 47.51 243.743 46.81C244.91 46.0633 245.867 45.1067 246.613 43.94C247.407 42.7267 247.99 41.3733 248.363 39.88C248.737 38.3867 248.923 36.8467 248.923 35.26C248.923 33.72 248.737 32.2033 248.363 30.71C247.99 29.2167 247.407 27.8867 246.613 26.72C245.867 25.5067 244.91 24.55 243.743 23.85C242.577 23.1033 241.2 22.73 239.613 22.73ZM285.215 54.44C284.281 54.86 283.161 55.21 281.855 55.49C280.548 55.8167 279.055 55.9567 277.375 55.91C275.648 55.8633 274.085 55.4433 272.685 54.65C271.285 53.81 270.258 52.8067 269.605 51.64C268.951 50.2867 268.555 48.77 268.415 47.09C268.275 45.3633 268.205 43.1467 268.205 40.44V23.92H263.235C262.348 23.92 261.905 23.4533 261.905 22.52V16.71C261.905 15.7767 262.348 15.31 263.235 15.31H268.205V6C268.205 5.06666 268.671 4.6 269.605 4.6H276.045C276.931 4.6 277.375 5.06666 277.375 6V15.31H283.325C283.885 15.31 284.235 15.4267 284.375 15.66C284.561 15.8467 284.655 16.1967 284.655 16.71V22.52C284.655 23.0333 284.561 23.4067 284.375 23.64C284.235 23.8267 283.885 23.92 283.325 23.92H277.375V39.6C277.375 41.28 277.375 42.6567 277.375 43.73C277.375 44.7567 277.421 45.4333 277.515 45.76C277.701 46.6467 278.098 47.2067 278.705 47.44C279.311 47.6733 279.965 47.7433 280.665 47.65C281.365 47.5567 282.041 47.3933 282.695 47.16C283.348 46.9267 283.861 46.7167 284.235 46.53C284.608 46.3433 284.888 46.3433 285.075 46.53C285.261 46.67 285.378 46.9967 285.425 47.51L286.055 52.76C286.101 53.18 286.078 53.53 285.985 53.81C285.891 54.0433 285.635 54.2533 285.215 54.44ZM321.914 36.66C321.868 37.22 321.728 37.6633 321.494 37.99C321.308 38.27 320.934 38.41 320.374 38.41H298.464C298.791 41.5367 299.771 43.8467 301.404 45.34C303.084 46.8333 305.068 47.6267 307.354 47.72C309.501 47.8133 311.368 47.6033 312.954 47.09C314.588 46.5767 316.151 45.8533 317.644 44.92C318.298 44.5 318.741 44.3833 318.974 44.57C319.208 44.7567 319.324 45.2467 319.324 46.04V51.29C319.324 51.8033 319.254 52.1533 319.114 52.34C319.021 52.5267 318.764 52.7833 318.344 53.11C316.991 54.0433 315.264 54.7433 313.164 55.21C311.111 55.6767 309.081 55.91 307.074 55.91C301.474 55.91 297.041 54.1133 293.774 50.52C290.554 46.9267 288.944 41.8167 288.944 35.19C288.944 32.7167 289.271 30.2433 289.924 27.77C290.578 25.2967 291.628 23.08 293.074 21.12C294.521 19.1133 296.294 17.5033 298.394 16.29C300.494 15.03 302.991 14.4 305.884 14.4C308.824 14.4 311.298 14.9367 313.304 16.01C315.358 17.0833 317.014 18.53 318.274 20.35C319.581 22.17 320.514 24.2933 321.074 26.72C321.634 29.1 321.914 31.6433 321.914 34.35V36.66ZM306.094 22.52C305.114 22.52 304.204 22.7533 303.364 23.22C302.524 23.6867 301.778 24.2933 301.124 25.04C300.518 25.7867 299.981 26.65 299.514 27.63C299.048 28.61 298.744 29.6367 298.604 30.71H312.814C312.814 29.7767 312.651 28.82 312.324 27.84C312.044 26.86 311.624 25.9967 311.064 25.25C310.551 24.4567 309.874 23.8033 309.034 23.29C308.194 22.7767 307.214 22.52 306.094 22.52Z" fill="white"/>
</svg>
