<svg width="142" height="30" viewBox="0 0 142 30" fill="none" xmlns="http://www.w3.org/2000/svg">
<path d="M9.816 24.6C9.64533 24.6 9.51733 24.568 9.432 24.504C9.34667 24.44 9.24 24.3013 9.112 24.088L4.696 10.52L4.056 8.024V10.36V24.088C4.056 24.3013 4.024 24.44 3.96 24.504C3.896 24.568 3.75733 24.6 3.544 24.6H1.368C1.19733 24.6 1.06933 24.568 0.984 24.504C0.898667 24.44 0.856 17.272 0.856 3C0.856 2.744 0.898667 2.584 0.984 2.52C1.06933 2.43467 1.22933 2.392 1.464 2.392H4.248C4.41867 2.392 4.54667 2.424 4.632 2.488C4.71733 2.53067 4.824 2.66933 4.952 2.904L9.368 16.472L10.008 18.968V16.632V2.904C10.008 2.69067 10.04 2.552 10.104 2.488C10.168 2.424 10.3067 2.392 10.52 2.392H12.696C12.9093 2.392 13.0373 2.424 13.08 2.488C13.144 2.552 13.176 2.69067 13.176 2.904V23.992C13.176 24.248 13.1333 24.408 13.048 24.472C12.984 24.5573 12.8347 24.6 12.6 24.6H9.816ZM26.424 24.6C26.2747 24.6 26.1787 24.5893 26.136 24.568C26.1147 24.5467 26.104 24.472 26.104 24.344V22.872C25.592 23.6187 24.952 24.1733 24.184 24.536C23.416 24.92 22.6373 25.112 21.848 25.112C21.2293 25.112 20.568 24.9947 19.864 24.76C19.1813 24.5467 18.5947 24.216 18.104 23.768C17.6133 23.3413 17.2187 22.808 16.92 22.168C16.6427 21.528 16.504 20.7813 16.504 19.928C16.504 19.0107 16.6853 18.1787 17.048 17.432C17.432 16.664 18.008 16.024 18.776 15.512C19.544 15 20.472 14.6267 21.56 14.392C22.6693 14.136 24.0773 14.008 25.784 14.008C25.784 13.624 25.7413 13.272 25.656 12.952C25.592 12.6107 25.464 12.2907 25.272 11.992C25.08 11.6933 24.8027 11.448 24.44 11.256C24.0987 11.0427 23.672 10.936 23.16 10.936C22.4773 10.936 21.7627 11.064 21.016 11.32C20.2907 11.576 19.608 11.9173 18.968 12.344C18.648 12.5573 18.424 12.6533 18.296 12.632C18.1893 12.6107 18.136 12.4933 18.136 12.28V9.784C18.136 9.74133 18.1253 9.66667 18.104 9.56C18.104 9.432 18.1467 9.336 18.232 9.272C18.3387 9.16533 18.4773 9.06933 18.648 8.984C19.288 8.62133 19.992 8.32267 20.76 8.088C21.528 7.85333 22.3067 7.736 23.096 7.736C25.144 7.736 26.6693 8.25867 27.672 9.304C28.696 10.328 29.208 11.8107 29.208 13.752V20.792C29.208 21.368 29.208 21.9547 29.208 22.552C29.2293 23.1493 29.272 23.6827 29.336 24.152C29.3573 24.4507 29.24 24.6 28.984 24.6H26.424ZM19.928 19.704C19.928 20.4507 20.152 21.016 20.6 21.4C21.048 21.7627 21.528 21.944 22.04 21.944C23.1707 21.944 24.0987 21.5067 24.824 20.632C25.5493 19.736 25.912 18.6587 25.912 17.4V17.048C23.6293 17.048 22.0613 17.2827 21.208 17.752C20.3547 18.2 19.928 18.8507 19.928 19.704ZM40.344 24.6H37.592C37.464 24.6 37.368 24.5787 37.304 24.536C37.2613 24.5147 37.2187 24.44 37.176 24.312L32.152 8.504C32.1093 8.39733 32.1093 8.312 32.152 8.248C32.1947 8.184 32.3333 8.152 32.568 8.152H35.192C35.2987 8.152 35.384 8.17333 35.448 8.216C35.512 8.23733 35.5653 8.30133 35.608 8.408L38.008 16.504L38.968 20.12L39.896 16.504L42.296 8.408C42.3387 8.30133 42.392 8.23733 42.456 8.216C42.5413 8.17333 42.6373 8.152 42.744 8.152H45.4C45.6347 8.152 45.7733 8.184 45.816 8.248C45.8587 8.312 45.8587 8.39733 45.816 8.504L40.728 24.312C40.6853 24.44 40.6427 24.5147 40.6 24.536C40.5573 24.5787 40.472 24.6 40.344 24.6ZM49.144 24.6C49.0373 24.6 48.9413 24.5573 48.856 24.472C48.792 24.408 48.76 24.312 48.76 24.184V21.688C48.76 21.5813 48.792 21.496 48.856 21.432C48.9413 21.3467 49.0373 21.304 49.144 21.304H53.496V11.448H49.72C49.6133 11.448 49.5173 11.416 49.432 11.352C49.368 11.2667 49.336 11.16 49.336 11.032V8.536C49.336 8.42933 49.368 8.344 49.432 8.28C49.5173 8.19467 49.6133 8.152 49.72 8.152H56.568C56.6747 8.152 56.76 8.19467 56.824 8.28C56.9093 8.344 56.952 8.42933 56.952 8.536V21.304H60.888C60.9947 21.304 61.08 21.3467 61.144 21.432C61.2293 21.496 61.272 21.5813 61.272 21.688V24.184C61.272 24.4613 61.144 24.6 60.888 24.6H49.144ZM54.776 5.624C54.0933 5.624 53.5173 5.38933 53.048 4.92C52.5787 4.45067 52.344 3.88533 52.344 3.224C52.344 2.52 52.5787 1.93333 53.048 1.464C53.5173 0.973332 54.0933 0.727999 54.776 0.727999C55.48 0.727999 56.0667 0.973332 56.536 1.464C57.0267 1.93333 57.272 2.52 57.272 3.224C57.272 3.88533 57.0267 4.45067 56.536 4.92C56.0667 5.38933 55.48 5.624 54.776 5.624ZM67.128 29.368C66.7013 29.368 66.3173 29.3467 65.976 29.304C65.656 29.2613 65.336 29.176 65.016 29.048C64.9093 29.0053 64.824 28.9413 64.76 28.856C64.696 28.792 64.6747 28.696 64.696 28.568L64.888 26.456C64.888 26.1787 65.0053 26.0827 65.24 26.168C65.5173 26.2533 65.7947 26.3067 66.072 26.328C66.3493 26.3707 66.6053 26.392 66.84 26.392C67.16 26.392 67.4267 26.3387 67.64 26.232C67.8533 26.1467 68.024 26.008 68.152 25.816C68.2587 25.6027 68.3653 25.3787 68.472 25.144C68.5787 24.9307 68.6747 24.696 68.76 24.44C68.8667 24.184 68.9733 23.8853 69.08 23.544C69.208 23.224 69.3147 22.904 69.4 22.584L64.536 8.504C64.4507 8.248 64.536 8.12 64.792 8.12H67.448C67.6613 8.12 67.7893 8.248 67.832 8.504L71.032 18.04L74.296 8.504C74.3387 8.248 74.4667 8.12 74.68 8.12H77.368C77.6027 8.12 77.6773 8.248 77.592 8.504L71.768 25.112C71.2133 26.6693 70.5733 27.768 69.848 28.408C69.1227 29.048 68.216 29.368 67.128 29.368ZM89.816 24.6C89.6453 24.6 89.5173 24.568 89.432 24.504C89.3467 24.44 89.24 24.3013 89.112 24.088L84.696 10.52L84.056 8.024V10.36V24.088C84.056 24.3013 84.024 24.44 83.96 24.504C83.896 24.568 83.7573 24.6 83.544 24.6H81.368C81.1973 24.6 81.0693 24.568 80.984 24.504C80.8987 24.44 80.856 17.272 80.856 3C80.856 2.744 80.8987 2.584 80.984 2.52C81.0693 2.43467 81.2293 2.392 81.464 2.392H84.248C84.4187 2.392 84.5467 2.424 84.632 2.488C84.7173 2.53067 84.824 2.66933 84.952 2.904L89.368 16.472L90.008 18.968V16.632V2.904C90.008 2.69067 90.04 2.552 90.104 2.488C90.168 2.424 90.3067 2.392 90.52 2.392H92.696C92.9093 2.392 93.0373 2.424 93.08 2.488C93.144 2.552 93.176 2.69067 93.176 2.904V23.992C93.176 24.248 93.1333 24.408 93.048 24.472C92.984 24.5573 92.8347 24.6 92.6 24.6H89.816ZM108.024 22.36C107.405 23.256 106.669 23.928 105.816 24.376C104.984 24.8453 104.045 25.08 103 25.08C101.933 25.08 100.984 24.856 100.152 24.408C99.3413 23.96 98.648 23.3413 98.072 22.552C97.5173 21.7413 97.1013 20.8133 96.824 19.768C96.5467 18.7227 96.408 17.6027 96.408 16.408C96.408 15.2133 96.5467 14.0933 96.824 13.048C97.1013 12.0027 97.5173 11.0853 98.072 10.296C98.648 9.50667 99.3413 8.888 100.152 8.44C100.963 7.992 101.912 7.768 103 7.768C104.067 7.768 105.005 7.992 105.816 8.44C106.648 8.888 107.341 9.50667 107.896 10.296C108.472 11.0853 108.899 12.0027 109.176 13.048C109.453 14.0933 109.592 15.2133 109.592 16.408C109.592 17.5813 109.453 18.68 109.176 19.704C108.899 20.728 108.515 21.6133 108.024 22.36ZM103 10.904C102.445 10.904 101.976 11.064 101.592 11.384C101.208 11.704 100.888 12.1307 100.632 12.664C100.397 13.176 100.205 13.7627 100.056 14.424C99.928 15.0853 99.864 15.7467 99.864 16.408C99.864 17.0907 99.928 17.7627 100.056 18.424C100.205 19.064 100.397 19.6507 100.632 20.184C100.888 20.7173 101.208 21.144 101.592 21.464C101.976 21.784 102.445 21.944 103 21.944C103.533 21.944 103.992 21.784 104.376 21.464C104.781 21.144 105.101 20.7173 105.336 20.184C105.592 19.6507 105.784 19.064 105.912 18.424C106.061 17.7627 106.136 17.0907 106.136 16.408C106.136 15.7467 106.061 15.096 105.912 14.456C105.784 13.7947 105.592 13.208 105.336 12.696C105.101 12.1627 104.781 11.736 104.376 11.416C103.992 11.0747 103.533 10.904 103 10.904ZM125.272 24.248C124.483 24.5253 123.683 24.728 122.872 24.856C122.083 24.984 121.411 25.0373 120.856 25.016C119.747 25.016 118.861 24.824 118.2 24.44C117.539 24.0773 117.08 23.6507 116.824 23.16C116.525 22.6053 116.344 21.9547 116.28 21.208C116.216 20.4613 116.184 19.448 116.184 18.168V12.12H112.664C112.557 12.12 112.461 12.088 112.376 12.024C112.312 11.9387 112.28 11.8427 112.28 11.736V9.208C112.28 9.10133 112.312 9.016 112.376 8.952C112.461 8.86667 112.557 8.824 112.664 8.824H116.184V4.184C116.184 4.07733 116.227 3.992 116.312 3.928C116.397 3.84267 116.493 3.8 116.6 3.8H119.192C119.32 3.8 119.416 3.84267 119.48 3.928C119.565 3.992 119.608 4.07733 119.608 4.184V8.824H124.984C125.091 8.824 125.176 8.86667 125.24 8.952C125.325 9.016 125.368 9.10133 125.368 9.208V11.736C125.368 11.8427 125.325 11.9387 125.24 12.024C125.176 12.088 125.091 12.12 124.984 12.12H119.608V18.36C119.608 19.7467 119.64 20.632 119.704 21.016C119.747 21.4213 119.939 21.6667 120.28 21.752C120.643 21.8373 121.123 21.88 121.72 21.88C122.211 21.88 122.723 21.8267 123.256 21.72C123.789 21.6133 124.312 21.4747 124.824 21.304C124.931 21.2613 125.005 21.2613 125.048 21.304C125.091 21.3253 125.133 21.4213 125.176 21.592L125.432 23.864C125.453 24.0133 125.4 24.1413 125.272 24.248ZM141.368 17.336C141.368 17.5067 141.325 17.6347 141.24 17.72C141.176 17.784 141.08 17.816 140.952 17.816H132.184C132.205 18.9467 132.493 19.9173 133.048 20.728C133.624 21.5173 134.541 21.912 135.8 21.912C136.568 21.912 137.24 21.8267 137.816 21.656C138.413 21.464 139.021 21.144 139.64 20.696C139.811 20.6107 139.907 20.6213 139.928 20.728C139.971 20.8347 139.992 20.9627 139.992 21.112V23.384C139.992 23.576 139.96 23.7147 139.896 23.8C139.832 23.9067 139.725 24.0133 139.576 24.12C139.021 24.4187 138.456 24.6533 137.88 24.824C137.325 24.9947 136.632 25.08 135.8 25.08C133.368 25.08 131.555 24.3013 130.36 22.744C129.165 21.1867 128.568 19.128 128.568 16.568C128.568 15.48 128.696 14.424 128.952 13.4C129.208 12.3547 129.603 11.416 130.136 10.584C130.691 9.752 131.384 9.06933 132.216 8.536C133.048 8.00267 134.008 7.736 135.096 7.736C136.248 7.736 137.219 7.98133 138.008 8.472C138.819 8.96267 139.469 9.61333 139.96 10.424C140.472 11.2133 140.835 12.12 141.048 13.144C141.283 14.168 141.4 15.2773 141.4 16.472C141.4 16.6213 141.389 16.792 141.368 16.984C141.368 17.1547 141.368 17.272 141.368 17.336ZM135.032 10.808C134.52 10.808 134.061 10.9573 133.656 11.256C133.272 11.5333 132.963 11.9173 132.728 12.408C132.515 12.8773 132.365 13.3147 132.28 13.72C132.216 14.104 132.184 14.4133 132.184 14.648H137.912C137.912 14.4133 137.869 14.104 137.784 13.72C137.72 13.3147 137.571 12.8773 137.336 12.408C137.123 11.9173 136.813 11.5333 136.408 11.256C136.003 10.9573 135.544 10.808 135.032 10.808Z" fill="black"/>
</svg>
