<svg width="148" height="31" viewBox="0 0 148 31" fill="none" xmlns="http://www.w3.org/2000/svg">
<path d="M14.96 24.968C14.704 24.968 14.5333 24.9467 14.448 24.904C14.3627 24.84 14.256 24.6907 14.128 24.456L4.88 7.592V24.2C4.88 24.5413 4.848 24.7547 4.784 24.84C4.72 24.9253 4.51733 24.968 4.176 24.968H1.264C0.944 24.968 0.741333 24.9253 0.656 24.84C0.570667 24.7547 0.528 24.5413 0.528 24.2V1.128C0.528 0.765333 0.56 0.530666 0.624 0.424C0.709333 0.317332 0.944 0.263998 1.328 0.263998H4.496C4.752 0.263998 4.92267 0.295998 5.008 0.359999C5.09333 0.423999 5.21067 0.594666 5.36 0.872L14.48 17.608V1.032C14.48 0.711999 14.512 0.509332 14.576 0.424C14.6613 0.317332 14.864 0.263998 15.184 0.263998H18.064C18.448 0.263998 18.672 0.317332 18.736 0.424C18.8 0.530666 18.832 0.733333 18.832 1.032V24.072C18.832 24.4773 18.7893 24.7333 18.704 24.84C18.6187 24.9253 18.384 24.968 18 24.968H14.96ZM33.218 25.032C33.026 25.032 32.898 25.0107 32.834 24.968C32.7913 24.9253 32.77 24.7973 32.77 24.584V23.208C32.4073 23.784 31.81 24.2747 30.978 24.68C30.1673 25.0853 29.3567 25.288 28.546 25.288C27.6713 25.288 26.8287 25.1707 26.018 24.936C25.2073 24.68 24.5353 24.296 24.002 23.784C23.49 23.2507 23.0847 22.6213 22.786 21.896C22.4873 21.1493 22.338 20.3067 22.338 19.368C22.338 18.2587 22.6047 17.256 23.138 16.36C23.6713 15.464 24.3753 14.7707 25.25 14.28C26.146 13.768 27.202 13.4053 28.418 13.192C29.634 12.9573 30.978 12.8827 32.45 12.968C32.322 11.2827 31.5967 10.3547 30.274 10.184C29.8473 10.1413 29.41 10.152 28.962 10.216C28.5353 10.28 28.1087 10.3867 27.682 10.536C27.2767 10.664 26.882 10.824 26.498 11.016C26.114 11.1867 25.7727 11.368 25.474 11.56C25.026 11.8587 24.706 12.008 24.514 12.008C24.322 12.008 24.226 11.7947 24.226 11.368V8.712C24.226 8.43467 24.2473 8.24267 24.29 8.136C24.354 8.008 24.514 7.88 24.77 7.752C25.41 7.432 26.1567 7.13333 27.01 6.856C27.8847 6.57867 28.9087 6.44 30.082 6.44C32.258 6.44 33.8793 6.99467 34.946 8.104C36.034 9.21333 36.578 10.9307 36.578 13.256V20.552C36.578 20.8293 36.578 21.1387 36.578 21.48C36.578 21.8 36.578 22.1307 36.578 22.472C36.5993 22.8133 36.61 23.144 36.61 23.464C36.6313 23.7627 36.6527 24.0293 36.674 24.264C36.7167 24.6907 36.6953 24.9253 36.61 24.968C36.5247 25.0107 36.3753 25.032 36.162 25.032H33.218ZM32.77 16.2C31.554 16.2213 30.5513 16.3173 29.762 16.488C28.9727 16.6373 28.3327 16.8507 27.842 17.128C27.3727 17.4053 27.0527 17.736 26.882 18.12C26.7113 18.504 26.626 18.9307 26.626 19.4C26.626 20.0827 26.8287 20.616 27.234 21C27.6393 21.3627 28.2047 21.544 28.93 21.544C30.082 21.544 30.9993 21.128 31.682 20.296C32.386 19.4427 32.7487 18.0773 32.77 16.2ZM48.5435 24.584C48.5008 24.7547 48.4475 24.8613 48.3835 24.904C48.3195 24.9467 48.1702 24.968 47.9355 24.968H45.0235C44.8528 24.968 44.7248 24.9467 44.6395 24.904C44.5542 24.8613 44.4902 24.7547 44.4475 24.584L38.8155 7.624C38.7088 7.304 38.6875 7.10133 38.7515 7.016C38.8368 6.93067 39.0608 6.888 39.4235 6.888H42.3995C42.6128 6.888 42.7515 6.90933 42.8155 6.952C42.9008 6.99467 42.9648 7.10133 43.0075 7.272L46.5275 18.792L50.0475 7.272C50.0902 7.10133 50.1435 6.99467 50.2075 6.952C50.2715 6.90933 50.4208 6.888 50.6555 6.888H53.5995C53.9622 6.888 54.1755 6.93067 54.2395 7.016C54.3248 7.10133 54.3142 7.304 54.2075 7.624L48.5435 24.584ZM56.5875 26.76C56.3955 26.76 56.2568 26.7173 56.1715 26.632C56.1075 26.5467 56.0755 26.376 56.0755 26.12V9.448C56.0755 9.192 56.1075 9.02133 56.1715 8.936C56.2355 8.85067 56.3742 8.808 56.5875 8.808H59.7555C59.9688 8.808 60.1075 8.85067 60.1715 8.936C60.2568 9.02133 60.2995 9.192 60.2995 9.448V26.12C60.2995 26.376 60.2568 26.5467 60.1715 26.632C60.1075 26.7173 59.9688 26.76 59.7555 26.76H56.5875ZM58.2195 6.088C57.5155 6.088 56.9288 5.84267 56.4595 5.352C55.9902 4.86133 55.7555 4.264 55.7555 3.56C55.7555 2.856 55.9795 2.25867 56.4275 1.768C56.8968 1.256 57.4942 0.999998 58.2195 0.999998C58.9448 0.999998 59.5422 1.256 60.0115 1.768C60.4808 2.25867 60.7155 2.856 60.7155 3.56C60.7155 4.264 60.4808 4.86133 60.0115 5.352C59.5422 5.84267 58.9448 6.088 58.2195 6.088ZM70.5135 25.64C69.9588 27.2187 69.2655 28.3493 68.4335 29.032C67.6015 29.736 66.6095 30.088 65.4575 30.088C65.2228 30.088 64.8815 30.0667 64.4335 30.024C63.9855 30.0027 63.5482 29.9067 63.1215 29.736C62.8868 29.6293 62.7268 29.5333 62.6415 29.448C62.5775 29.384 62.5562 29.2347 62.5775 29L62.8015 26.376C62.8228 26.184 62.8868 26.0667 62.9935 26.024C63.1002 26.0027 63.2388 26.024 63.4095 26.088C63.7082 26.1947 64.0068 26.2693 64.3055 26.312C64.6255 26.376 64.9455 26.3973 65.2655 26.376C65.4362 26.3547 65.5962 26.312 65.7455 26.248C65.8948 26.184 66.0228 26.056 66.1295 25.864C66.3642 25.3733 66.5775 24.8933 66.7695 24.424C66.9828 23.9547 67.1855 23.4107 67.3775 22.792L62.0655 7.688C61.9588 7.368 61.9482 7.16533 62.0335 7.08C62.1188 6.99467 62.2895 6.952 62.5455 6.952H65.5855C65.7775 6.952 65.9055 6.984 65.9695 7.048C66.0548 7.09067 66.1295 7.22933 66.1935 7.464L69.3615 17.64L72.5295 7.464C72.5935 7.22933 72.6575 7.09067 72.7215 7.048C72.8068 6.984 72.9455 6.952 73.1375 6.952H76.2415C76.5402 6.952 76.7108 7.00533 76.7535 7.112C76.8175 7.21867 76.7962 7.42133 76.6895 7.72L70.5135 25.64ZM93.7413 24.968C93.4853 24.968 93.3146 24.9467 93.2292 24.904C93.1439 24.84 93.0373 24.6907 92.9093 24.456L83.6613 7.592V24.2C83.6613 24.5413 83.6293 24.7547 83.5653 24.84C83.5013 24.9253 83.2986 24.968 82.9573 24.968H80.0453C79.7253 24.968 79.5226 24.9253 79.4373 24.84C79.3519 24.7547 79.3093 24.5413 79.3093 24.2V1.128C79.3093 0.765333 79.3413 0.530666 79.4053 0.424C79.4906 0.317332 79.7253 0.263998 80.1093 0.263998H83.2773C83.5333 0.263998 83.7039 0.295998 83.7893 0.359999C83.8746 0.423999 83.9919 0.594666 84.1413 0.872L93.2613 17.608V1.032C93.2613 0.711999 93.2933 0.509332 93.3573 0.424C93.4426 0.317332 93.6453 0.263998 93.9653 0.263998H96.8453C97.2293 0.263998 97.4533 0.317332 97.5173 0.424C97.5813 0.530666 97.6133 0.733333 97.6133 1.032V24.072C97.6133 24.4773 97.5706 24.7333 97.4853 24.84C97.3999 24.9253 97.1653 24.968 96.7812 24.968H93.7413ZM116.319 22.472C115.53 23.4747 114.581 24.232 113.471 24.744C112.383 25.2347 111.167 25.48 109.823 25.48C108.415 25.48 107.178 25.224 106.111 24.712C105.066 24.2 104.181 23.5173 103.455 22.664C102.751 21.7893 102.218 20.776 101.855 19.624C101.493 18.472 101.311 17.256 101.311 15.976C101.311 14.696 101.482 13.48 101.823 12.328C102.186 11.176 102.719 10.1733 103.423 9.32C104.149 8.44533 105.045 7.76267 106.111 7.272C107.178 6.76 108.415 6.504 109.823 6.504C111.231 6.504 112.469 6.76 113.535 7.272C114.602 7.784 115.487 8.47733 116.191 9.352C116.917 10.2053 117.461 11.208 117.823 12.36C118.186 13.4907 118.367 14.696 118.367 15.976C118.367 17.2347 118.186 18.4293 117.823 19.56C117.482 20.6693 116.981 21.64 116.319 22.472ZM109.823 10.248C109.119 10.248 108.501 10.4187 107.967 10.76C107.434 11.08 106.986 11.5067 106.623 12.04C106.282 12.5733 106.015 13.1813 105.823 13.864C105.653 14.5467 105.567 15.2507 105.567 15.976C105.567 16.7013 105.653 17.4053 105.823 18.088C106.015 18.7707 106.282 19.3893 106.623 19.944C106.986 20.4773 107.434 20.9147 107.967 21.256C108.501 21.576 109.119 21.736 109.823 21.736C110.549 21.736 111.178 21.576 111.711 21.256C112.245 20.9147 112.682 20.4773 113.023 19.944C113.386 19.3893 113.653 18.7707 113.823 18.088C113.994 17.4053 114.079 16.7013 114.079 15.976C114.079 15.272 113.994 14.5787 113.823 13.896C113.653 13.2133 113.386 12.6053 113.023 12.072C112.682 11.5173 112.245 11.08 111.711 10.76C111.178 10.4187 110.549 10.248 109.823 10.248ZM130.67 24.744C130.243 24.936 129.731 25.096 129.134 25.224C128.536 25.3733 127.854 25.4373 127.086 25.416C126.296 25.3947 125.582 25.2027 124.942 24.84C124.302 24.456 123.832 23.9973 123.534 23.464C123.235 22.8453 123.054 22.152 122.99 21.384C122.926 20.5947 122.894 19.5813 122.894 18.344V10.792H120.622C120.216 10.792 120.014 10.5787 120.014 10.152V7.496C120.014 7.06933 120.216 6.856 120.622 6.856H122.894V2.6C122.894 2.17333 123.107 1.96 123.534 1.96H126.478C126.883 1.96 127.086 2.17333 127.086 2.6V6.856H129.806C130.062 6.856 130.222 6.90933 130.286 7.016C130.371 7.10133 130.414 7.26133 130.414 7.496V10.152C130.414 10.3867 130.371 10.5573 130.286 10.664C130.222 10.7493 130.062 10.792 129.806 10.792H127.086V17.96C127.086 18.728 127.086 19.3573 127.086 19.848C127.086 20.3173 127.107 20.6267 127.15 20.776C127.235 21.1813 127.416 21.4373 127.694 21.544C127.971 21.6507 128.27 21.6827 128.59 21.64C128.91 21.5973 129.219 21.5227 129.518 21.416C129.816 21.3093 130.051 21.2133 130.222 21.128C130.392 21.0427 130.52 21.0427 130.606 21.128C130.691 21.192 130.744 21.3413 130.766 21.576L131.054 23.976C131.075 24.168 131.064 24.328 131.022 24.456C130.979 24.5627 130.862 24.6587 130.67 24.744ZM147.447 16.616C147.425 16.872 147.361 17.0747 147.255 17.224C147.169 17.352 146.999 17.416 146.743 17.416H136.727C136.876 18.8453 137.324 19.9013 138.071 20.584C138.839 21.2667 139.745 21.6293 140.791 21.672C141.772 21.7147 142.625 21.6187 143.351 21.384C144.097 21.1493 144.812 20.8187 145.495 20.392C145.793 20.2 145.996 20.1467 146.103 20.232C146.209 20.3173 146.263 20.5413 146.263 20.904V23.304C146.263 23.5387 146.231 23.6987 146.167 23.784C146.124 23.8693 146.007 23.9867 145.815 24.136C145.196 24.5627 144.407 24.8827 143.447 25.096C142.508 25.3093 141.58 25.416 140.663 25.416C138.103 25.416 136.076 24.5947 134.583 22.952C133.111 21.3093 132.375 18.9733 132.375 15.944C132.375 14.8133 132.524 13.6827 132.823 12.552C133.121 11.4213 133.601 10.408 134.263 9.512C134.924 8.59467 135.735 7.85867 136.695 7.304C137.655 6.728 138.796 6.44 140.119 6.44C141.463 6.44 142.593 6.68533 143.511 7.176C144.449 7.66667 145.207 8.328 145.783 9.16C146.38 9.992 146.807 10.9627 147.062 12.072C147.319 13.16 147.447 14.3227 147.447 15.56V16.616ZM140.215 10.152C139.767 10.152 139.351 10.2587 138.967 10.472C138.583 10.6853 138.241 10.9627 137.943 11.304C137.665 11.6453 137.42 12.04 137.207 12.488C136.993 12.936 136.855 13.4053 136.791 13.896H143.287C143.287 13.4693 143.212 13.032 143.063 12.584C142.935 12.136 142.743 11.7413 142.487 11.4C142.252 11.0373 141.943 10.7387 141.559 10.504C141.175 10.2693 140.727 10.152 140.215 10.152Z" fill="#003366"/>
</svg>
